<svg width="227" height="88" viewBox="0 0 227 88" fill="none" xmlns="http://www.w3.org/2000/svg">
<g clip-path="url(#clip0_36_31)">
<path d="M0 0H227V76.1081C227 82.6759 221.651 88 215.053 88H11.9474C5.34902 88 0 82.6759 0 76.1081V0Z" fill="#E62828"/>
<path d="M54.0095 33.4657H48.3217L48.2914 29.9934H52.9022C53.7314 29.9934 54.3937 29.9028 54.8892 29.7217C55.3847 29.5304 55.7437 29.2536 55.9661 28.8912C56.1987 28.5289 56.315 28.0761 56.315 27.5325C56.315 26.9085 56.1987 26.4052 55.9661 26.0228C55.7335 25.6404 55.3645 25.3636 54.8588 25.1925C54.3634 25.0113 53.7213 24.9208 52.9326 24.9208H50.3237V42.8108H45V20.8294H52.9326C54.2977 20.8294 55.5162 20.9552 56.588 21.2068C57.6598 21.4483 58.5699 21.8208 59.3182 22.3241C60.0765 22.8272 60.6528 23.4613 61.0472 24.2263C61.4416 24.9811 61.6387 25.8719 61.6387 26.8984C61.6387 27.7942 61.4466 28.6346 61.0624 29.4197C60.6782 30.2047 60.0361 30.8438 59.1361 31.337C58.2463 31.8201 57.0279 32.0717 55.4807 32.0918L54.0095 33.4657ZM53.7972 42.8108H47.0325L48.8526 38.7346H53.7972C54.5252 38.7346 55.1066 38.6239 55.5414 38.4025C55.9863 38.171 56.3048 37.869 56.497 37.4966C56.6992 37.1141 56.8003 36.6915 56.8003 36.2284C56.8003 35.6649 56.7042 35.1767 56.5121 34.7641C56.3302 34.3514 56.0369 34.0344 55.6324 33.8129C55.228 33.5814 54.687 33.4657 54.0095 33.4657H49.5351L49.5654 29.9934H54.9195L56.1633 31.3822C57.6396 31.3219 58.8075 31.5283 59.667 32.0013C60.5366 32.4743 61.1585 33.0984 61.5327 33.8733C61.9067 34.6483 62.0938 35.4585 62.0938 36.3039C62.0938 37.7432 61.7803 38.946 61.1534 39.9122C60.5366 40.8784 59.6114 41.6031 58.3777 42.0861C57.1441 42.5693 55.6173 42.8108 53.7972 42.8108ZM74.0192 35.3528H68.5286V31.2615H74.0192C74.7675 31.2615 75.3742 31.1357 75.8393 30.8841C76.3044 30.6325 76.6431 30.2852 76.8555 29.8424C77.078 29.3895 77.1892 28.8813 77.1892 28.3176C77.1892 27.7137 77.078 27.1551 76.8555 26.6418C76.6431 26.1285 76.3044 25.7159 75.8393 25.4038C75.3742 25.0818 74.7675 24.9208 74.0192 24.9208H70.5306V42.8108H65.2068V20.8294H74.0192C75.7887 20.8294 77.3105 21.1515 78.5845 21.7956C79.8688 22.4398 80.8547 23.3255 81.5422 24.4527C82.2299 25.57 82.5736 26.8481 82.5736 28.2874C82.5736 29.7065 82.2299 30.9445 81.5422 32.0013C80.8547 33.058 79.8688 33.8833 78.5845 34.4772C77.3105 35.061 75.7887 35.3528 74.0192 35.3528ZM102.845 25.4491L97.4603 42.8108H91.7422L99.8568 20.8294H103.482L102.845 25.4491ZM107.304 42.8108L101.904 25.4491L101.207 20.8294H104.877L113.037 42.8108H107.304ZM107.092 34.613V38.7044H95.7615V34.613H107.092ZM126.525 20.8294H131.849V35.1868C131.849 36.8978 131.49 38.3471 130.772 39.5347C130.054 40.7124 129.048 41.6031 127.753 42.2069C126.459 42.8108 124.937 43.1128 123.188 43.1128C121.459 43.1128 119.937 42.8108 118.623 42.2069C117.318 41.6031 116.297 40.7124 115.559 39.5347C114.831 38.3471 114.467 36.8978 114.467 35.1868V20.8294H119.806V35.1868C119.806 36.0926 119.937 36.8324 120.2 37.4061C120.463 37.9696 120.848 38.3823 121.353 38.644C121.858 38.9056 122.47 39.0366 123.188 39.0366C123.916 39.0366 124.527 38.9056 125.023 38.644C125.519 38.3823 125.893 37.9696 126.146 37.4061C126.398 36.8324 126.525 36.0926 126.525 35.1868V20.8294ZM146.049 20.8294V42.8108H140.726V20.8294H146.049ZM152.692 20.8294V24.9208H134.233V20.8294H152.692ZM173.369 31.3822V32.2731C173.369 33.9539 173.132 35.4635 172.657 36.8022C172.191 38.1308 171.53 39.268 170.669 40.2141C169.81 41.1501 168.794 41.8698 167.622 42.373C166.448 42.8661 165.154 43.1128 163.739 43.1128C162.312 43.1128 161.009 42.8661 159.825 42.373C158.653 41.8698 157.631 41.1501 156.761 40.2141C155.901 39.268 155.235 38.1308 154.759 36.8022C154.294 35.4635 154.061 33.9539 154.061 32.2731V31.3822C154.061 29.7014 154.294 28.1918 154.759 26.8532C155.235 25.5145 155.896 24.3772 156.746 23.4412C157.606 22.4951 158.622 21.7755 159.795 21.2823C160.978 20.7791 162.282 20.5274 163.708 20.5274C165.123 20.5274 166.418 20.7791 167.591 21.2823C168.775 21.7755 169.795 22.4951 170.655 23.4412C171.514 24.3772 172.182 25.5145 172.657 26.8532C173.132 28.1918 173.369 29.7014 173.369 31.3822ZM167.97 32.2731V31.3521C167.97 30.2651 167.874 29.309 167.681 28.4836C167.5 27.6483 167.227 26.9488 166.863 26.3851C166.499 25.8215 166.049 25.3988 165.513 25.117C164.987 24.8252 164.385 24.6791 163.708 24.6791C163 24.6791 162.384 24.8252 161.857 25.117C161.331 25.3988 160.892 25.8215 160.538 26.3851C160.184 26.9488 159.916 27.6483 159.734 28.4836C159.562 29.309 159.476 30.2651 159.476 31.3521V32.2731C159.476 33.35 159.562 34.3061 159.734 35.1415C159.916 35.9668 160.184 36.6663 160.538 37.2399C160.902 37.8137 161.347 38.2465 161.873 38.5383C162.409 38.8302 163.03 38.9762 163.739 38.9762C164.416 38.9762 165.017 38.8302 165.543 38.5383C166.07 38.2465 166.509 37.8137 166.863 37.2399C167.227 36.6663 167.5 35.9668 167.681 35.1415C167.874 34.3061 167.97 33.35 167.97 32.2731Z" fill="white"/>
<path d="M179.211 42.8108C180.53 42.8108 181.6 41.746 181.6 40.4324C181.6 39.1189 180.53 38.054 179.211 38.054C177.891 38.054 176.821 39.1189 176.821 40.4324C176.821 41.746 177.891 42.8108 179.211 42.8108Z" fill="#2B454E"/>
<path d="M81.3524 58.7668H82.6932C82.6234 59.4093 82.4395 59.9842 82.1415 60.4916C81.8436 60.9991 81.4223 61.4018 80.8776 61.6997C80.3329 61.993 79.6532 62.1397 78.8385 62.1397C78.2426 62.1397 77.7003 62.0279 77.2115 61.8045C76.7273 61.581 76.3106 61.2644 75.9615 60.8548C75.6123 60.4404 75.3423 59.9446 75.1514 59.3674C74.9652 58.7854 74.8721 58.1383 74.8721 57.4261V56.4135C74.8721 55.7012 74.9652 55.0565 75.1514 54.4792C75.3423 53.8973 75.6146 53.3991 75.9685 52.9848C76.3269 52.5705 76.7576 52.2516 77.2603 52.0281C77.7631 51.8047 78.3288 51.6929 78.9572 51.6929C79.7254 51.6929 80.3748 51.8372 80.9055 52.1259C81.4362 52.4145 81.8482 52.8149 82.1415 53.327C82.4395 53.8344 82.6234 54.4233 82.6932 55.0937H81.3524C81.2873 54.6188 81.1662 54.2115 80.9893 53.8717C80.8124 53.5272 80.561 53.2618 80.2351 53.0756C79.9093 52.8894 79.4833 52.7963 78.9572 52.7963C78.5057 52.7963 78.1076 52.8824 77.7631 53.0546C77.4233 53.2269 77.137 53.4713 76.9042 53.7879C76.6761 54.1044 76.5038 54.4838 76.3874 54.9261C76.2711 55.3684 76.2129 55.8595 76.2129 56.3995V57.4261C76.2129 57.9242 76.2641 58.3921 76.3665 58.8297C76.4736 59.2673 76.6342 59.6513 76.8483 59.9819C77.0625 60.3124 77.3348 60.5731 77.6654 60.764C77.9959 60.9502 78.3869 61.0433 78.8385 61.0433C79.4111 61.0433 79.8674 60.9525 80.2072 60.771C80.5471 60.5894 80.8031 60.3287 80.9754 59.9889C81.1523 59.649 81.278 59.2417 81.3524 58.7668ZM88.7895 60.7081V56.8185C88.7895 56.5206 88.7289 56.2622 88.6079 56.0434C88.4915 55.8199 88.3146 55.6477 88.0772 55.5267C87.8398 55.4056 87.5465 55.3451 87.1973 55.3451C86.8714 55.3451 86.5851 55.401 86.3384 55.5127C86.0963 55.6244 85.9054 55.7711 85.7658 55.9526C85.6308 56.1342 85.5633 56.3297 85.5633 56.5392H84.2714C84.2714 56.2692 84.3412 56.0015 84.4809 55.7361C84.6205 55.4708 84.8207 55.231 85.0814 55.0169C85.3468 54.7981 85.6633 54.6258 86.0311 54.5001C86.4036 54.3698 86.8179 54.3046 87.2741 54.3046C87.8235 54.3046 88.3076 54.3977 88.7266 54.5839C89.1503 54.7701 89.4808 55.0518 89.7182 55.4289C89.9603 55.8013 90.0813 56.2692 90.0813 56.8325V60.352C90.0813 60.6034 90.1023 60.8711 90.1442 61.155C90.1907 61.439 90.2582 61.6834 90.3467 61.8883V62H88.999C88.9338 61.851 88.8826 61.6532 88.8453 61.4064C88.8081 61.155 88.7895 60.9223 88.7895 60.7081ZM89.0129 57.4191L89.0269 58.3269H87.721C87.3533 58.3269 87.0251 58.3571 86.7364 58.4177C86.4478 58.4735 86.2057 58.5597 86.0102 58.676C85.8147 58.7924 85.6657 58.9391 85.5633 59.116C85.4608 59.2882 85.4096 59.4907 85.4096 59.7235C85.4096 59.9609 85.4632 60.1774 85.5702 60.3729C85.6773 60.5685 85.8379 60.7244 86.0521 60.8408C86.2709 60.9525 86.5386 61.0084 86.8551 61.0084C87.2508 61.0084 87.6 60.9246 87.9026 60.757C88.2052 60.5894 88.445 60.3846 88.6219 60.1425C88.8034 59.9004 88.9012 59.6653 88.9152 59.4372L89.4668 60.0587C89.4342 60.2542 89.3458 60.4707 89.2015 60.7081C89.0571 60.9455 88.8639 61.1737 88.6219 61.3925C88.3844 61.6066 88.1005 61.7859 87.7699 61.9302C87.444 62.0698 87.0763 62.1397 86.6666 62.1397C86.1545 62.1397 85.7052 62.0396 85.3188 61.8394C84.9371 61.6392 84.6392 61.3715 84.425 61.0363C84.2155 60.6965 84.1108 60.3171 84.1108 59.8981C84.1108 59.4931 84.1899 59.1369 84.3482 58.8297C84.5065 58.5178 84.7346 58.2594 85.0325 58.0545C85.3305 57.845 85.689 57.6868 86.1079 57.5797C86.5269 57.4726 86.9948 57.4191 87.5115 57.4191H89.0129ZM93.4053 55.6314V62H92.1134V54.4443H93.3704L93.4053 55.6314ZM95.7656 54.4024L95.7586 55.6035C95.6515 55.5802 95.5491 55.5662 95.4513 55.5616C95.3582 55.5523 95.2512 55.5476 95.1301 55.5476C94.8322 55.5476 94.5691 55.5942 94.341 55.6873C94.1129 55.7804 93.9197 55.9107 93.7614 56.0783C93.6031 56.2459 93.4775 56.4461 93.3843 56.6789C93.2959 56.907 93.2377 57.1584 93.2098 57.433L92.8466 57.6425C92.8466 57.1863 92.8909 56.758 92.9793 56.3576C93.0724 55.9573 93.2144 55.6035 93.4053 55.2962C93.5962 54.9843 93.8382 54.7422 94.1315 54.57C94.4295 54.3931 94.7833 54.3046 95.193 54.3046C95.2861 54.3046 95.3932 54.3162 95.5142 54.3395C95.6352 54.3581 95.719 54.3791 95.7656 54.4024ZM106.122 59.4302C106.122 59.1928 106.084 58.9833 106.01 58.8017C105.94 58.6155 105.814 58.4479 105.633 58.2989C105.456 58.15 105.209 58.008 104.893 57.873C104.581 57.738 104.185 57.6006 103.705 57.461C103.203 57.312 102.749 57.1467 102.344 56.9652C101.939 56.779 101.592 56.5671 101.303 56.3297C101.015 56.0923 100.793 55.8199 100.64 55.5127C100.486 55.2054 100.409 54.8539 100.409 54.4582C100.409 54.0625 100.491 53.6971 100.654 53.3619C100.817 53.0267 101.049 52.7357 101.352 52.489C101.659 52.2376 102.025 52.0421 102.448 51.9024C102.872 51.7628 103.345 51.6929 103.866 51.6929C104.629 51.6929 105.277 51.8396 105.807 52.1329C106.343 52.4215 106.75 52.8009 107.029 53.2711C107.309 53.7366 107.448 54.2348 107.448 54.7655H106.108C106.108 54.3838 106.026 54.0462 105.863 53.7529C105.7 53.455 105.453 53.2222 105.123 53.0546C104.792 52.8824 104.373 52.7963 103.866 52.7963C103.386 52.7963 102.991 52.8684 102.679 53.0127C102.367 53.1571 102.134 53.3526 101.981 53.5993C101.832 53.8461 101.757 54.1277 101.757 54.4443C101.757 54.6584 101.801 54.8539 101.89 55.0309C101.983 55.2031 102.125 55.3637 102.316 55.5127C102.511 55.6617 102.758 55.799 103.056 55.9247C103.359 56.0504 103.719 56.1714 104.138 56.2878C104.716 56.4508 105.214 56.6323 105.633 56.8325C106.052 57.0327 106.396 57.2585 106.666 57.5099C106.941 57.7566 107.143 58.0382 107.274 58.3548C107.409 58.6667 107.476 59.0205 107.476 59.4162C107.476 59.8306 107.392 60.2053 107.225 60.5405C107.057 60.8757 106.818 61.162 106.506 61.3995C106.194 61.6369 105.819 61.8208 105.381 61.9511C104.948 62.0768 104.464 62.1397 103.929 62.1397C103.459 62.1397 102.995 62.0745 102.539 61.9441C102.088 61.8138 101.676 61.6183 101.303 61.3576C100.935 61.0969 100.64 60.7756 100.416 60.3939C100.198 60.0075 100.088 59.5606 100.088 59.0531H101.429C101.429 59.4023 101.496 59.7026 101.631 59.9539C101.766 60.2007 101.95 60.4055 102.183 60.5685C102.42 60.7314 102.688 60.8524 102.986 60.9316C103.289 61.0061 103.603 61.0433 103.929 61.0433C104.399 61.0433 104.797 60.9781 105.123 60.8478C105.449 60.7174 105.696 60.5312 105.863 60.2891C106.035 60.0471 106.122 59.7607 106.122 59.4302ZM112.134 62.1397C111.608 62.1397 111.131 62.0512 110.702 61.8743C110.279 61.6927 109.913 61.439 109.606 61.1131C109.304 60.7873 109.071 60.4009 108.908 59.9539C108.745 59.507 108.663 59.0182 108.663 58.4875V58.1942C108.663 57.5797 108.754 57.0327 108.936 56.5532C109.117 56.069 109.364 55.6593 109.676 55.3241C109.988 54.989 110.342 54.7352 110.737 54.563C111.133 54.3907 111.543 54.3046 111.966 54.3046C112.506 54.3046 112.972 54.3977 113.363 54.5839C113.759 54.7701 114.082 55.0309 114.334 55.366C114.585 55.6966 114.771 56.0876 114.892 56.5392C115.013 56.9861 115.074 57.4749 115.074 58.0057V58.5853H109.432V57.5308H113.782V57.433C113.763 57.0979 113.694 56.772 113.573 56.4554C113.456 56.1388 113.27 55.8781 113.014 55.6733C112.758 55.4685 112.409 55.366 111.966 55.366C111.673 55.366 111.403 55.4289 111.156 55.5546C110.91 55.6756 110.698 55.8572 110.521 56.0993C110.344 56.3414 110.207 56.637 110.109 56.9861C110.011 57.3353 109.962 57.738 109.962 58.1942V58.4875C109.962 58.846 110.011 59.1835 110.109 59.5C110.211 59.812 110.358 60.0866 110.549 60.3241C110.744 60.5615 110.979 60.7477 111.254 60.8827C111.533 61.0177 111.85 61.0852 112.204 61.0852C112.66 61.0852 113.046 60.9921 113.363 60.8059C113.68 60.6197 113.957 60.3706 114.194 60.0587L114.976 60.6802C114.813 60.9269 114.606 61.162 114.355 61.3855C114.103 61.6089 113.794 61.7905 113.426 61.9302C113.063 62.0698 112.632 62.1397 112.134 62.1397ZM117.986 51.2739V62H116.687V51.2739H117.986ZM121.463 51.2739V62H120.165V51.2739H121.463ZM124.941 54.4443V62H123.642V54.4443H124.941ZM123.544 52.4401C123.544 52.2306 123.607 52.0537 123.733 51.9094C123.863 51.7651 124.054 51.6929 124.306 51.6929C124.552 51.6929 124.741 51.7651 124.871 51.9094C125.006 52.0537 125.074 52.2306 125.074 52.4401C125.074 52.6403 125.006 52.8126 124.871 52.9569C124.741 53.0965 124.552 53.1664 124.306 53.1664C124.054 53.1664 123.863 53.0965 123.733 52.9569C123.607 52.8126 123.544 52.6403 123.544 52.4401ZM128.307 56.0574V62H127.015V54.4443H128.237L128.307 56.0574ZM128 57.9358L127.462 57.9149C127.467 57.3981 127.543 56.9209 127.692 56.4833C127.841 56.0411 128.051 55.657 128.321 55.3311C128.591 55.0052 128.912 54.7539 129.285 54.577C129.662 54.3954 130.078 54.3046 130.535 54.3046C130.907 54.3046 131.242 54.3558 131.54 54.4582C131.838 54.556 132.092 54.7143 132.301 54.9331C132.515 55.1519 132.678 55.4359 132.79 55.785C132.902 56.1295 132.958 56.5508 132.958 57.049V62H131.659V57.035C131.659 56.6393 131.601 56.3227 131.484 56.0853C131.368 55.8432 131.198 55.6686 130.974 55.5616C130.751 55.4498 130.476 55.394 130.15 55.394C129.829 55.394 129.536 55.4615 129.271 55.5965C129.01 55.7315 128.784 55.9177 128.593 56.1551C128.407 56.3926 128.26 56.6649 128.153 56.9722C128.051 57.2748 128 57.596 128 57.9358ZM139.815 54.4443H140.988V61.8394C140.988 62.5051 140.853 63.0731 140.583 63.5433C140.313 64.0135 139.936 64.3696 139.452 64.6117C138.972 64.8584 138.418 64.9818 137.79 64.9818C137.529 64.9818 137.222 64.9399 136.868 64.8561C136.519 64.777 136.175 64.6396 135.835 64.4441C135.5 64.2532 135.218 63.9948 134.99 63.669L135.667 62.9008C135.984 63.2826 136.314 63.5479 136.659 63.6969C137.008 63.8459 137.352 63.9204 137.692 63.9204C138.102 63.9204 138.456 63.8435 138.754 63.6899C139.052 63.5363 139.282 63.3082 139.445 63.0056C139.613 62.7076 139.696 62.3398 139.696 61.9022V56.1063L139.815 54.4443ZM134.613 58.3059V58.1593C134.613 57.582 134.68 57.0583 134.815 56.5881C134.955 56.1132 135.153 55.7059 135.409 55.366C135.669 55.0262 135.984 54.7655 136.351 54.5839C136.719 54.3977 137.134 54.3046 137.594 54.3046C138.069 54.3046 138.484 54.3884 138.837 54.556C139.196 54.7189 139.498 54.9587 139.745 55.2753C139.997 55.5872 140.194 55.9643 140.339 56.4065C140.483 56.8488 140.583 57.3492 140.639 57.9079V58.5503C140.588 59.1043 140.488 59.6025 140.339 60.0447C140.194 60.487 139.997 60.8641 139.745 61.176C139.498 61.4879 139.196 61.7277 138.837 61.8953C138.479 62.0582 138.06 62.1397 137.58 62.1397C137.129 62.1397 136.719 62.0442 136.351 61.8534C135.988 61.6625 135.676 61.3948 135.416 61.0503C135.155 60.7058 134.955 60.3008 134.815 59.8352C134.68 59.365 134.613 58.8553 134.613 58.3059ZM135.905 58.1593V58.3059C135.905 58.683 135.942 59.0368 136.016 59.3674C136.095 59.6979 136.214 59.9889 136.372 60.2403C136.535 60.4916 136.742 60.6895 136.994 60.8338C137.245 60.9735 137.546 61.0433 137.895 61.0433C138.323 61.0433 138.677 60.9525 138.956 60.771C139.235 60.5894 139.457 60.3497 139.62 60.0517C139.787 59.7538 139.917 59.4302 140.011 59.0811V57.3981C139.959 57.1421 139.88 56.8953 139.773 56.6579C139.671 56.4158 139.536 56.2017 139.368 56.0155C139.205 55.8246 139.003 55.6733 138.761 55.5616C138.519 55.4498 138.235 55.394 137.909 55.394C137.555 55.394 137.25 55.4685 136.994 55.6174C136.742 55.7618 136.535 55.9619 136.372 56.218C136.214 56.4694 136.095 56.7627 136.016 57.0979C135.942 57.4284 135.905 57.7822 135.905 58.1593Z" fill="white"/>
</g>
<defs>
<clipPath id="clip0_36_31">
<rect width="227" height="88" fill="white"/>
</clipPath>
</defs>
</svg>
